<svg width="16" height="16" viewBox="0 0 16 16" fill="none" xmlns="http://www.w3.org/2000/svg">
<path d="M7.99992 13.9999L7.03325 13.1333C5.91103 12.1222 4.98325 11.2499 4.24992 10.5166C3.51659 9.78327 2.93325 9.12482 2.49992 8.54127C2.06659 7.95816 1.76392 7.42216 1.59192 6.93327C1.41947 6.44438 1.33325 5.94438 1.33325 5.43327C1.33325 4.38882 1.68325 3.5166 2.38325 2.8166C3.08325 2.1166 3.95547 1.7666 4.99992 1.7666C5.5777 1.7666 6.1277 1.88882 6.64992 2.13327C7.17214 2.37771 7.62214 2.72216 7.99992 3.1666C8.3777 2.72216 8.8277 2.37771 9.34992 2.13327C9.87214 1.88882 10.4221 1.7666 10.9999 1.7666C12.0444 1.7666 12.9166 2.1166 13.6166 2.8166C14.3166 3.5166 14.6666 4.38882 14.6666 5.43327C14.6666 5.94438 14.5806 6.44438 14.4086 6.93327C14.2361 7.42216 13.9333 7.95816 13.4999 8.54127C13.0666 9.12482 12.4833 9.78327 11.7499 10.5166C11.0166 11.2499 10.0888 12.1222 8.96658 13.1333L7.99992 13.9999Z" fill="#E84118"/>
</svg>
