<svg width="16" height="16" viewBox="0 0 16 16" fill="none" xmlns="http://www.w3.org/2000/svg">
<path d="M7.99992 14L7.03325 13.1333C5.91103 12.1222 4.98325 11.25 4.24992 10.5167C3.51659 9.78333 2.93325 9.12489 2.49992 8.54133C2.06659 7.95822 1.76392 7.42222 1.59192 6.93333C1.41947 6.44444 1.33325 5.94444 1.33325 5.43333C1.33325 4.38888 1.68325 3.51666 2.38325 2.81666C3.08325 2.11666 3.95547 1.76666 4.99992 1.76666C5.5777 1.76666 6.1277 1.88888 6.64992 2.13333C7.17214 2.37777 7.62214 2.72222 7.99992 3.16666C8.3777 2.72222 8.8277 2.37777 9.34992 2.13333C9.87214 1.88888 10.4221 1.76666 10.9999 1.76666C12.0444 1.76666 12.9166 2.11666 13.6166 2.81666C14.3166 3.51666 14.6666 4.38888 14.6666 5.43333C14.6666 5.94444 14.5806 6.44444 14.4086 6.93333C14.2361 7.42222 13.9333 7.95822 13.4999 8.54133C13.0666 9.12489 12.4833 9.78333 11.7499 10.5167C11.0166 11.25 10.0888 12.1222 8.96658 13.1333L7.99992 14ZM7.99992 12.2C9.06659 11.2444 9.94436 10.4249 10.6333 9.74133C11.3221 9.05822 11.8666 8.464 12.2666 7.95866C12.6666 7.45289 12.9444 7.00266 13.0999 6.608C13.2555 6.21377 13.3333 5.82222 13.3333 5.43333C13.3333 4.76666 13.111 4.21111 12.6666 3.76666C12.2221 3.32222 11.6666 3.1 10.9999 3.1C10.4777 3.1 9.99436 3.24711 9.54992 3.54133C9.10547 3.836 8.79992 4.21111 8.63325 4.66666H7.36659C7.19992 4.21111 6.89436 3.836 6.44992 3.54133C6.00547 3.24711 5.52214 3.1 4.99992 3.1C4.33325 3.1 3.7777 3.32222 3.33325 3.76666C2.88881 4.21111 2.66659 4.76666 2.66659 5.43333C2.66659 5.82222 2.74436 6.21377 2.89992 6.608C3.05547 7.00266 3.33325 7.45289 3.73325 7.95866C4.13325 8.464 4.6777 9.05822 5.36659 9.74133C6.05547 10.4249 6.93325 11.2444 7.99992 12.2Z" fill="white"/>
</svg>
